solid ASCII
  facet normal -1.000000e+00 0.000000e+00 0.000000e+00
    outer loop
      vertex   -2.565710e-02 0.000000e+00 -1.290659e-02
      vertex   -2.565710e-02 0.000000e+00 1.249341e-02
      vertex   -2.565710e-02 2.540000e-02 -1.290659e-02
    endloop
  endfacet
  facet normal -1.000000e+00 0.000000e+00 0.000000e+00
    outer loop
      vertex   -2.565710e-02 2.540000e-02 -1.290659e-02
      vertex   -2.565710e-02 0.000000e+00 1.249341e-02
      vertex   -2.565710e-02 2.540000e-02 1.249341e-02
    endloop
  endfacet
  facet normal 0.000000e+00 0.000000e+00 -1.000000e+00
    outer loop
      vertex   -2.571033e-04 0.000000e+00 -1.290659e-02
      vertex   -2.565710e-02 0.000000e+00 -1.290659e-02
      vertex   -2.571033e-04 2.540000e-02 -1.290659e-02
    endloop
  endfacet
  facet normal -0.000000e+00 0.000000e+00 -1.000000e+00
    outer loop
      vertex   -2.571033e-04 2.540000e-02 -1.290659e-02
      vertex   -2.565710e-02 0.000000e+00 -1.290659e-02
      vertex   -2.565710e-02 2.540000e-02 -1.290659e-02
    endloop
  endfacet
  facet normal 1.000000e+00 0.000000e+00 -1.365924e-16
    outer loop
      vertex   -2.571033e-04 0.000000e+00 1.249341e-02
      vertex   -2.571033e-04 0.000000e+00 -1.290659e-02
      vertex   -2.571033e-04 2.540000e-02 1.249341e-02
    endloop
  endfacet
  facet normal 1.000000e+00 0.000000e+00 -1.365924e-16
    outer loop
      vertex   -2.571033e-04 2.540000e-02 1.249341e-02
      vertex   -2.571033e-04 0.000000e+00 -1.290659e-02
      vertex   -2.571033e-04 2.540000e-02 -1.290659e-02
    endloop
  endfacet
  facet normal 6.829620e-17 -0.000000e+00 1.000000e+00
    outer loop
      vertex   -2.565710e-02 0.000000e+00 1.249341e-02
      vertex   -2.571033e-04 0.000000e+00 1.249341e-02
      vertex   -2.565710e-02 2.540000e-02 1.249341e-02
    endloop
  endfacet
  facet normal 6.829620e-17 0.000000e+00 1.000000e+00
    outer loop
      vertex   -2.565710e-02 2.540000e-02 1.249341e-02
      vertex   -2.571033e-04 0.000000e+00 1.249341e-02
      vertex   -2.571033e-04 2.540000e-02 1.249341e-02
    endloop
  endfacet
  facet normal 0.000000e+00 -1.000000e+00 0.000000e+00
    outer loop
      vertex   -2.565710e-02 0.000000e+00 1.249341e-02
      vertex   -2.565710e-02 0.000000e+00 -1.290659e-02
      vertex   -2.571033e-04 0.000000e+00 1.249341e-02
    endloop
  endfacet
  facet normal 0.000000e+00 -1.000000e+00 0.000000e+00
    outer loop
      vertex   -2.571033e-04 0.000000e+00 1.249341e-02
      vertex   -2.565710e-02 0.000000e+00 -1.290659e-02
      vertex   -2.571033e-04 0.000000e+00 -1.290659e-02
    endloop
  endfacet
  facet normal 0.000000e+00 1.000000e+00 0.000000e+00
    outer loop
      vertex   -2.571033e-04 2.540000e-02 1.249341e-02
      vertex   -2.571033e-04 2.540000e-02 -1.290659e-02
      vertex   -2.565710e-02 2.540000e-02 1.249341e-02
    endloop
  endfacet
  facet normal 0.000000e+00 1.000000e+00 0.000000e+00
    outer loop
      vertex   -2.565710e-02 2.540000e-02 1.249341e-02
      vertex   -2.571033e-04 2.540000e-02 -1.290659e-02
      vertex   -2.565710e-02 2.540000e-02 -1.290659e-02
    endloop
  endfacet
endsolid
